{
	"asset":{
		"generator":"Khronos glTF Blender I/O v4.0.44",
		"version":"2.0"
	},
	"extensionsUsed":[
		"KHR_materials_specular",
		"KHR_materials_ior"
	],
	"scene":0,
	"scenes":[
		{
			"name":"Scene",
			"nodes":[
				3
			]
		}
	],
	"nodes":[
		{
			"mesh":0,
			"name":"Cube.001",
			"translation":[
				-0.7876152992248535,
				-0.0023219361901283264,
				0.003810600843280554
			]
		},
		{
			"mesh":1,
			"name":"Cube.002",
			"translation":[
				-0.046376366168260574,
				0.0008679223246872425,
				0.052071988582611084
			]
		},
		{
			"mesh":2,
			"name":"Cube.003",
			"translation":[
				-0.046376366168260574,
				0.0008679223246872425,
				-0.0517023429274559
			]
		},
		{
			"children":[
				0,
				1,
				2
			],
			"mesh":3,
			"name":"Cube"
		}
	],
	"materials":[
		{
			"doubleSided":true,
			"name":"dark",
			"pbrMetallicRoughness":{
				"baseColorFactor":[
					0.0012879346031695604,
					0.0074883121997118,
					0.02146686613559723,
					1
				],
				"metallicFactor":0,
				"roughnessFactor":0.5
			}
		},
		{
			"doubleSided":true,
			"name":"metal",
			"pbrMetallicRoughness":{
				"baseColorFactor":[
					0.2945201098918915,
					0.2945201098918915,
					0.2945201098918915,
					1
				],
				"metallicFactor":0.6917562484741211,
				"roughnessFactor":0.5
			}
		},
		{
			"doubleSided":true,
			"name":"white",
			"pbrMetallicRoughness":{
				"baseColorFactor":[
					0.800000011920929,
					0.800000011920929,
					0.800000011920929,
					1
				],
				"metallicFactor":0,
				"roughnessFactor":0.5
			}
		},
		{
			"doubleSided":true,
			"extensions":{
				"KHR_materials_specular":{
					"specularColorFactor":[
						1.0931899547576904,
						1.0931899547576904,
						1.0931899547576904
					]
				},
				"KHR_materials_ior":{
					"ior":1.4500000476837158
				}
			},
			"name":"blue",
			"pbrMetallicRoughness":{
				"baseColorFactor":[
					0,
					0.32762908935546875,
					0.47698819637298584,
					1
				],
				"metallicFactor":0.3405017852783203,
				"roughnessFactor":0.5
			}
		},
		{
			"doubleSided":true,
			"name":"window",
			"pbrMetallicRoughness":{
				"baseColorFactor":[
					0.6345884203910828,
					0.8000000715255737,
					0.7421666979789734,
					1
				],
				"metallicFactor":0,
				"roughnessFactor":0.5
			}
		}
	],
	"meshes":[
		{
			"name":"Cube.002",
			"primitives":[
				{
					"attributes":{
						"POSITION":0,
						"NORMAL":1,
						"TEXCOORD_0":2
					},
					"indices":3,
					"material":0
				},
				{
					"attributes":{
						"POSITION":4,
						"NORMAL":5,
						"TEXCOORD_0":6
					},
					"indices":7,
					"material":1
				}
			]
		},
		{
			"name":"Cube.003",
			"primitives":[
				{
					"attributes":{
						"POSITION":8,
						"NORMAL":9,
						"TEXCOORD_0":10
					},
					"indices":3,
					"material":0
				},
				{
					"attributes":{
						"POSITION":11,
						"NORMAL":12,
						"TEXCOORD_0":13
					},
					"indices":7,
					"material":1
				}
			]
		},
		{
			"name":"Cube.004",
			"primitives":[
				{
					"attributes":{
						"POSITION":14,
						"NORMAL":15,
						"TEXCOORD_0":16
					},
					"indices":3,
					"material":0
				},
				{
					"attributes":{
						"POSITION":17,
						"NORMAL":18,
						"TEXCOORD_0":19
					},
					"indices":7,
					"material":1
				}
			]
		},
		{
			"name":"Cube.001",
			"primitives":[
				{
					"attributes":{
						"POSITION":20,
						"NORMAL":21,
						"TEXCOORD_0":22
					},
					"indices":23,
					"material":2
				},
				{
					"attributes":{
						"POSITION":24,
						"NORMAL":25,
						"TEXCOORD_0":26
					},
					"indices":27,
					"material":3
				},
				{
					"attributes":{
						"POSITION":28,
						"NORMAL":29,
						"TEXCOORD_0":30
					},
					"indices":31,
					"material":4
				},
				{
					"attributes":{
						"POSITION":32,
						"NORMAL":33,
						"TEXCOORD_0":34
					},
					"indices":35,
					"material":0
				},
				{
					"attributes":{
						"POSITION":36,
						"NORMAL":37,
						"TEXCOORD_0":38
					},
					"indices":39,
					"material":1
				}
			]
		}
	],
	"accessors":[
		{
			"bufferView":0,
			"componentType":5126,
			"count":192,
			"max":[
				0.024225393310189247,
				-0.046281926333904266,
				0.012844360433518887
			],
			"min":[
				-0.01983034238219261,
				-0.08443532884120941,
				-0.012753074057400227
			],
			"type":"VEC3"
		},
		{
			"bufferView":1,
			"componentType":5126,
			"count":192,
			"type":"VEC3"
		},
		{
			"bufferView":2,
			"componentType":5126,
			"count":192,
			"type":"VEC2"
		},
		{
			"bufferView":3,
			"componentType":5123,
			"count":288,
			"type":"SCALAR"
		},
		{
			"bufferView":4,
			"componentType":5126,
			"count":142,
			"max":[
				0.015686072409152985,
				0.0036285684909671545,
				0.012844360433518887
			],
			"min":[
				-0.028612688183784485,
				-0.07704007625579834,
				-0.012753074057400227
			],
			"type":"VEC3"
		},
		{
			"bufferView":5,
			"componentType":5126,
			"count":142,
			"type":"VEC3"
		},
		{
			"bufferView":6,
			"componentType":5126,
			"count":142,
			"type":"VEC2"
		},
		{
			"bufferView":7,
			"componentType":5123,
			"count":240,
			"type":"SCALAR"
		},
		{
			"bufferView":8,
			"componentType":5126,
			"count":192,
			"max":[
				0.029325000941753387,
				-0.05533634498715401,
				0.01554820779711008
			],
			"min":[
				-0.024004807695746422,
				-0.1015213280916214,
				-0.01543767936527729
			],
			"type":"VEC3"
		},
		{
			"bufferView":9,
			"componentType":5126,
			"count":192,
			"type":"VEC3"
		},
		{
			"bufferView":10,
			"componentType":5126,
			"count":192,
			"type":"VEC2"
		},
		{
			"bufferView":11,
			"componentType":5126,
			"count":142,
			"max":[
				0.018988117575645447,
				0.005080690141767263,
				0.01554820779711008
			],
			"min":[
				-0.034635864198207855,
				-0.09256932139396667,
				-0.01543767936527729
			],
			"type":"VEC3"
		},
		{
			"bufferView":12,
			"componentType":5126,
			"count":142,
			"type":"VEC3"
		},
		{
			"bufferView":13,
			"componentType":5126,
			"count":142,
			"type":"VEC2"
		},
		{
			"bufferView":14,
			"componentType":5126,
			"count":192,
			"max":[
				0.029325000941753387,
				-0.05533634498715401,
				0.015548228286206722
			],
			"min":[
				-0.024004807695746422,
				-0.1015213280916214,
				-0.015437658876180649
			],
			"type":"VEC3"
		},
		{
			"bufferView":15,
			"componentType":5126,
			"count":192,
			"type":"VEC3"
		},
		{
			"bufferView":16,
			"componentType":5126,
			"count":192,
			"type":"VEC2"
		},
		{
			"bufferView":17,
			"componentType":5126,
			"count":142,
			"max":[
				0.018988117575645447,
				0.005080690141767263,
				0.015548228286206722
			],
			"min":[
				-0.034635864198207855,
				-0.09256932139396667,
				-0.015437658876180649
			],
			"type":"VEC3"
		},
		{
			"bufferView":18,
			"componentType":5126,
			"count":142,
			"type":"VEC3"
		},
		{
			"bufferView":19,
			"componentType":5126,
			"count":142,
			"type":"VEC2"
		},
		{
			"bufferView":20,
			"componentType":5126,
			"count":2309,
			"max":[
				0.9652528762817383,
				0.6207032203674316,
				0.9502105712890625
			],
			"min":[
				-1.0000056028366089,
				-0.07512775808572769,
				-0.9502105712890625
			],
			"type":"VEC3"
		},
		{
			"bufferView":21,
			"componentType":5126,
			"count":2309,
			"type":"VEC3"
		},
		{
			"bufferView":22,
			"componentType":5126,
			"count":2309,
			"type":"VEC2"
		},
		{
			"bufferView":23,
			"componentType":5123,
			"count":4179,
			"type":"SCALAR"
		},
		{
			"bufferView":24,
			"componentType":5126,
			"count":357,
			"max":[
				0.9888672828674316,
				0.6207032203674316,
				1.02264404296875
			],
			"min":[
				-0.2751651406288147,
				-0.07425351440906525,
				-1.02264404296875
			],
			"type":"VEC3"
		},
		{
			"bufferView":25,
			"componentType":5126,
			"count":357,
			"type":"VEC3"
		},
		{
			"bufferView":26,
			"componentType":5126,
			"count":357,
			"type":"VEC2"
		},
		{
			"bufferView":27,
			"componentType":5123,
			"count":573,
			"type":"SCALAR"
		},
		{
			"bufferView":28,
			"componentType":5126,
			"count":384,
			"max":[
				0.41005003452301025,
				0.165143683552742,
				0.09606637805700302
			],
			"min":[
				-0.5895447134971619,
				0.12700121104717255,
				-0.09606637805700302
			],
			"type":"VEC3"
		},
		{
			"bufferView":29,
			"componentType":5126,
			"count":384,
			"type":"VEC3"
		},
		{
			"bufferView":30,
			"componentType":5126,
			"count":384,
			"type":"VEC2"
		},
		{
			"bufferView":31,
			"componentType":5123,
			"count":864,
			"type":"SCALAR"
		},
		{
			"bufferView":32,
			"componentType":5126,
			"count":1277,
			"max":[
				0.5191554427146912,
				0.17852425575256348,
				0.3134022057056427
			],
			"min":[
				-1.0161885023117065,
				-0.03540147840976715,
				-0.3134022057056427
			],
			"type":"VEC3"
		},
		{
			"bufferView":33,
			"componentType":5126,
			"count":1277,
			"type":"VEC3"
		},
		{
			"bufferView":34,
			"componentType":5126,
			"count":1277,
			"type":"VEC2"
		},
		{
			"bufferView":35,
			"componentType":5123,
			"count":2808,
			"type":"SCALAR"
		},
		{
			"bufferView":36,
			"componentType":5126,
			"count":448,
			"max":[
				0.09351634979248047,
				0.1023508682847023,
				0.3563704490661621
			],
			"min":[
				-1.0080969333648682,
				-0.06858774274587631,
				-0.3563704490661621
			],
			"type":"VEC3"
		},
		{
			"bufferView":37,
			"componentType":5126,
			"count":448,
			"type":"VEC3"
		},
		{
			"bufferView":38,
			"componentType":5126,
			"count":448,
			"type":"VEC2"
		},
		{
			"bufferView":39,
			"componentType":5123,
			"count":768,
			"type":"SCALAR"
		}
	],
	"bufferViews":[
		{
			"buffer":0,
			"byteLength":2304,
			"byteOffset":0,
			"target":34962
		},
		{
			"buffer":0,
			"byteLength":2304,
			"byteOffset":2304,
			"target":34962
		},
		{
			"buffer":0,
			"byteLength":1536,
			"byteOffset":4608,
			"target":34962
		},
		{
			"buffer":0,
			"byteLength":576,
			"byteOffset":6144,
			"target":34963
		},
		{
			"buffer":0,
			"byteLength":1704,
			"byteOffset":6720,
			"target":34962
		},
		{
			"buffer":0,
			"byteLength":1704,
			"byteOffset":8424,
			"target":34962
		},
		{
			"buffer":0,
			"byteLength":1136,
			"byteOffset":10128,
			"target":34962
		},
		{
			"buffer":0,
			"byteLength":480,
			"byteOffset":11264,
			"target":34963
		},
		{
			"buffer":0,
			"byteLength":2304,
			"byteOffset":11744,
			"target":34962
		},
		{
			"buffer":0,
			"byteLength":2304,
			"byteOffset":14048,
			"target":34962
		},
		{
			"buffer":0,
			"byteLength":1536,
			"byteOffset":16352,
			"target":34962
		},
		{
			"buffer":0,
			"byteLength":1704,
			"byteOffset":17888,
			"target":34962
		},
		{
			"buffer":0,
			"byteLength":1704,
			"byteOffset":19592,
			"target":34962
		},
		{
			"buffer":0,
			"byteLength":1136,
			"byteOffset":21296,
			"target":34962
		},
		{
			"buffer":0,
			"byteLength":2304,
			"byteOffset":22432,
			"target":34962
		},
		{
			"buffer":0,
			"byteLength":2304,
			"byteOffset":24736,
			"target":34962
		},
		{
			"buffer":0,
			"byteLength":1536,
			"byteOffset":27040,
			"target":34962
		},
		{
			"buffer":0,
			"byteLength":1704,
			"byteOffset":28576,
			"target":34962
		},
		{
			"buffer":0,
			"byteLength":1704,
			"byteOffset":30280,
			"target":34962
		},
		{
			"buffer":0,
			"byteLength":1136,
			"byteOffset":31984,
			"target":34962
		},
		{
			"buffer":0,
			"byteLength":27708,
			"byteOffset":33120,
			"target":34962
		},
		{
			"buffer":0,
			"byteLength":27708,
			"byteOffset":60828,
			"target":34962
		},
		{
			"buffer":0,
			"byteLength":18472,
			"byteOffset":88536,
			"target":34962
		},
		{
			"buffer":0,
			"byteLength":8358,
			"byteOffset":107008,
			"target":34963
		},
		{
			"buffer":0,
			"byteLength":4284,
			"byteOffset":115368,
			"target":34962
		},
		{
			"buffer":0,
			"byteLength":4284,
			"byteOffset":119652,
			"target":34962
		},
		{
			"buffer":0,
			"byteLength":2856,
			"byteOffset":123936,
			"target":34962
		},
		{
			"buffer":0,
			"byteLength":1146,
			"byteOffset":126792,
			"target":34963
		},
		{
			"buffer":0,
			"byteLength":4608,
			"byteOffset":127940,
			"target":34962
		},
		{
			"buffer":0,
			"byteLength":4608,
			"byteOffset":132548,
			"target":34962
		},
		{
			"buffer":0,
			"byteLength":3072,
			"byteOffset":137156,
			"target":34962
		},
		{
			"buffer":0,
			"byteLength":1728,
			"byteOffset":140228,
			"target":34963
		},
		{
			"buffer":0,
			"byteLength":15324,
			"byteOffset":141956,
			"target":34962
		},
		{
			"buffer":0,
			"byteLength":15324,
			"byteOffset":157280,
			"target":34962
		},
		{
			"buffer":0,
			"byteLength":10216,
			"byteOffset":172604,
			"target":34962
		},
		{
			"buffer":0,
			"byteLength":5616,
			"byteOffset":182820,
			"target":34963
		},
		{
			"buffer":0,
			"byteLength":5376,
			"byteOffset":188436,
			"target":34962
		},
		{
			"buffer":0,
			"byteLength":5376,
			"byteOffset":193812,
			"target":34962
		},
		{
			"buffer":0,
			"byteLength":3584,
			"byteOffset":199188,
			"target":34962
		},
		{
			"buffer":0,
			"byteLength":1536,
			"byteOffset":202772,
			"target":34963
		}
	],
	"buffers":[
		{
			"byteLength":204308,
			"uri":"airplane.bin"
		}
	]
}
