{
	"asset":{
		"generator":"Khronos glTF Blender I/O v4.0.44",
		"version":"2.0"
	},
	"scene":0,
	"scenes":[
		{
			"name":"Scene",
			"nodes":[
				0
			]
		}
	],
	"nodes":[
		{
			"mesh":0,
			"name":"Plane",
			"scale":[
				30,
				10,
				30
			],
			"translation":[
				0,
				1.3406333923339844,
				0
			]
		}
	],
	"materials":[
		{
			"doubleSided":true,
			"name":"Material.002",
			"pbrMetallicRoughness":{
				"baseColorTexture":{
					"index":0
				},
				"metallicFactor":0,
				"roughnessFactor":0.5
			}
		}
	],
	"meshes":[
		{
			"name":"Plane.001",
			"primitives":[
				{
					"attributes":{
						"POSITION":0,
						"NORMAL":1,
						"TEXCOORD_0":2
					},
					"indices":3,
					"material":0
				}
			]
		}
	],
	"textures":[
		{
			"sampler":0,
			"source":0
		}
	],
	"images":[
		{
			"mimeType":"image/png",
			"name":"Rugged Terrain with Rocky Peaks Diffuse EXR",
			"uri":"Rugged%20Terrain%20with%20Rocky%20Peaks%20Diffuse%20EXR.png"
		}
	],
	"accessors":[
		{
			"bufferView":0,
			"componentType":5126,
			"count":16420,
			"max":[
				1,
				-0.1644517183303833,
				1
			],
			"min":[
				-1,
				-0.5991333723068237,
				-1
			],
			"type":"VEC3"
		},
		{
			"bufferView":1,
			"componentType":5126,
			"count":16420,
			"type":"VEC3"
		},
		{
			"bufferView":2,
			"componentType":5126,
			"count":16420,
			"type":"VEC2"
		},
		{
			"bufferView":3,
			"componentType":5123,
			"count":24576,
			"type":"SCALAR"
		}
	],
	"bufferViews":[
		{
			"buffer":0,
			"byteLength":197040,
			"byteOffset":0,
			"target":34962
		},
		{
			"buffer":0,
			"byteLength":197040,
			"byteOffset":197040,
			"target":34962
		},
		{
			"buffer":0,
			"byteLength":131360,
			"byteOffset":394080,
			"target":34962
		},
		{
			"buffer":0,
			"byteLength":49152,
			"byteOffset":525440,
			"target":34963
		}
	],
	"samplers":[
		{
			"magFilter":9729,
			"minFilter":9987
		}
	],
	"buffers":[
		{
			"byteLength":574592,
			"uri":"surface.bin"
		}
	]
}
